<svg width="234" height="719" xmlns="http://www.w3.org/2000/svg" xmlns:xlink="http://www.w3.org/1999/xlink" xml:space="preserve" overflow="hidden"><g transform="translate(-1040 -1148)"><rect x="0" y="120.869" width="112.131" height="597.131" fill="#878790" transform="matrix(-1 0 0 1 1273.5 1148.5)"/><path d="M112.131 120.869 233 0 233 597.131 112.131 718Z" fill="#6D6D74" fill-rule="evenodd" transform="matrix(-1 0 0 1 1273.5 1148.5)"/><path d="M0 120.869 120.869 0 233 0 112.131 120.869Z" fill="#9F9FA6" fill-rule="evenodd" transform="matrix(-1 0 0 1 1273.5 1148.5)"/><path d="M0 120.869 120.869 0 233 0 233 597.131 112.131 718 0 718ZM0 120.869 112.131 120.869 233 0M112.131 120.869 112.131 718" stroke="#404040" stroke-width="1.14583" stroke-miterlimit="8" fill="none" fill-rule="evenodd" transform="matrix(-1 0 0 1 1273.5 1148.5)"/></g></svg>