<svg width="171" height="719" xmlns="http://www.w3.org/2000/svg" xmlns:xlink="http://www.w3.org/1999/xlink" xml:space="preserve" overflow="hidden"><g transform="translate(-731 -1148)"><rect x="0" y="111.266" width="58.7334" height="606.734" fill="#ADAEA8" transform="matrix(-1 0 0 1 901.5 1148.5)"/><path d="M58.7334 111.266 170 0 170 606.734 58.7334 718Z" fill="#8B8C87" fill-rule="evenodd" transform="matrix(-1 0 0 1 901.5 1148.5)"/><path d="M0 111.266 111.267 0 170 0 58.7334 111.266Z" fill="#BDBEB9" fill-rule="evenodd" transform="matrix(-1 0 0 1 901.5 1148.5)"/><path d="M0 111.266 111.267 0 170 0 170 606.734 58.7334 718 0 718ZM0 111.266 58.7334 111.266 170 0M58.7334 111.266 58.7334 718" stroke="#404040" stroke-width="1.14583" stroke-miterlimit="8" fill="none" fill-rule="evenodd" transform="matrix(-1 0 0 1 901.5 1148.5)"/></g></svg>