<svg width="163" height="719" xmlns="http://www.w3.org/2000/svg" xmlns:xlink="http://www.w3.org/1999/xlink" xml:space="preserve" overflow="hidden"><g transform="translate(-437 -1148)"><rect x="0" y="119.884" width="42.1152" height="598.116" fill="#605E5F" transform="matrix(-1 0 0 1 599.5 1148.5)"/><path d="M42.1152 119.884 162 0 162 598.116 42.1152 718Z" fill="#4D4C4C" fill-rule="evenodd" transform="matrix(-1 0 0 1 599.5 1148.5)"/><path d="M0 119.884 119.885 0 162 0 42.1152 119.884Z" fill="#7F7E7E" fill-rule="evenodd" transform="matrix(-1 0 0 1 599.5 1148.5)"/><path d="M0 119.884 119.885 0 162 0 162 598.116 42.1152 718 0 718ZM0 119.884 42.1152 119.884 162 0M42.1152 119.884 42.1152 718" stroke="#404040" stroke-width="1.14583" stroke-miterlimit="8" fill="none" fill-rule="evenodd" transform="matrix(-1 0 0 1 599.5 1148.5)"/></g></svg>