<svg width="163" height="719" xmlns="http://www.w3.org/2000/svg" xmlns:xlink="http://www.w3.org/1999/xlink" xml:space="preserve" overflow="hidden"><g transform="translate(-143 -1148)"><rect x="0" y="137.219" width="24.7814" height="580.782" fill="#605E5F" transform="matrix(-1 0 0 1 305.5 1148.5)"/><path d="M24.7814 137.219 162 0 162 580.782 24.7814 718Z" fill="#4D4C4C" fill-rule="evenodd" transform="matrix(-1 0 0 1 305.5 1148.5)"/><path d="M0 137.219 137.219 0 162 0 24.7814 137.219Z" fill="#7F7E7E" fill-rule="evenodd" transform="matrix(-1 0 0 1 305.5 1148.5)"/><path d="M0 137.219 137.219 0 162 0 162 580.782 24.7814 718 0 718ZM0 137.219 24.7814 137.219 162 0M24.7814 137.219 24.7814 718" stroke="#404040" stroke-width="1.14583" stroke-miterlimit="8" fill="none" fill-rule="evenodd" transform="matrix(-1 0 0 1 305.5 1148.5)"/></g></svg>