<?xml version="1.0" encoding="UTF-8" standalone="no"?>
<!DOCTYPE svg PUBLIC "-//W3C//DTD SVG 1.1//EN" "http://www.w3.org/Graphics/SVG/1.1/DTD/svg11.dtd">
<svg width="100%" height="100%" viewBox="0 0 280 79" version="1.1" xmlns="http://www.w3.org/2000/svg" xmlns:xlink="http://www.w3.org/1999/xlink" xml:space="preserve" xmlns:serif="http://www.serif.com/" style="fill-rule:evenodd;clip-rule:evenodd;stroke-linejoin:round;stroke-miterlimit:2;">
    <g>
        <g transform="matrix(1,0,0,1,-119.868,0)">
            <path d="M230.562,42.571L241.892,42.571L236.253,27.318L230.563,42.571L230.562,42.571ZM251.469,56.471L247.544,56.471C247.224,56.471 246.936,56.271 246.824,55.971L243.405,46.788L229.1,46.788L225.683,55.972C225.572,56.272 225.283,56.472 224.963,56.472L221.351,56.472C221.35,56.472 221.35,56.472 221.349,56.472C220.929,56.472 220.582,56.126 220.582,55.705C220.582,55.61 220.6,55.515 220.635,55.426L233.66,22.236C233.776,21.942 234.061,21.748 234.377,21.748L238.442,21.748C238.759,21.748 239.043,21.942 239.159,22.236L252.185,55.426C252.22,55.515 252.238,55.61 252.238,55.705C252.238,56.126 251.891,56.472 251.471,56.472C251.47,56.472 251.47,56.472 251.469,56.472L251.469,56.471ZM285.454,56.472L281.612,56.472C281.361,56.472 281.126,56.35 280.982,56.144L262.154,29.296L262.154,55.705C262.153,56.126 261.807,56.472 261.386,56.472C261.386,56.472 261.385,56.472 261.385,56.472L258.015,56.472C258.014,56.472 258.014,56.472 258.013,56.472C257.592,56.472 257.246,56.126 257.245,55.705L257.245,22.515C257.245,22.091 257.59,21.748 258.015,21.748L261.91,21.748C262.16,21.748 262.396,21.87 262.54,22.075L281.315,48.871L281.315,22.515C281.315,22.091 281.659,21.748 282.085,21.748L285.455,21.748C285.88,21.748 286.223,22.091 286.223,22.515L286.223,55.705C286.222,56.126 285.876,56.472 285.455,56.472C285.455,56.472 285.454,56.472 285.454,56.472M331.545,56.472L328.07,56.472C328.07,56.472 328.069,56.472 328.069,56.472C327.648,56.472 327.302,56.126 327.301,55.705L327.301,26.12L315.593,26.12C315.592,26.12 315.592,26.12 315.591,26.12C315.17,26.12 314.824,25.774 314.823,25.353L314.823,22.513C314.823,22.09 315.167,21.747 315.593,21.747L343.971,21.747C344.396,21.747 344.741,22.09 344.741,22.514L344.741,25.354C344.74,25.775 344.394,26.12 343.973,26.12C343.972,26.12 343.972,26.12 343.971,26.12L332.314,26.12L332.314,55.704C332.313,56.125 331.967,56.471 331.546,56.471C331.545,56.471 331.545,56.471 331.544,56.471M362.18,25.392C360.275,25.392 358.537,25.752 357.01,26.46C355.505,27.153 354.162,28.155 353.069,29.4C351.977,30.644 351.126,32.107 350.537,33.748C349.948,35.389 349.649,37.167 349.649,39.032C349.649,40.863 349.949,42.623 350.537,44.263C351.124,45.903 351.976,47.365 353.069,48.61C354.166,49.859 355.507,50.869 357.01,51.579C358.536,52.304 360.274,52.671 362.18,52.671C364.085,52.671 365.833,52.304 367.375,51.578C368.888,50.873 370.24,49.863 371.343,48.61C372.433,47.368 373.286,45.905 373.875,44.263C374.465,42.621 374.763,40.861 374.763,39.032C374.763,37.169 374.464,35.391 373.875,33.747C373.285,32.105 372.433,30.643 371.343,29.401C370.243,28.151 368.89,27.148 367.374,26.459C365.832,25.751 364.084,25.392 362.18,25.392M362.18,57.356C359.687,57.356 357.332,56.875 355.184,55.926C353.07,55 351.155,53.673 349.544,52.02C347.95,50.38 346.685,48.426 345.785,46.214C344.885,44.007 344.428,41.608 344.428,39.084C344.428,36.56 344.885,34.168 345.786,31.977C346.686,29.784 347.942,27.839 349.52,26.199C351.094,24.559 352.991,23.245 355.157,22.294C357.324,21.344 359.686,20.864 362.18,20.864C364.673,20.864 367.035,21.344 369.201,22.294C371.367,23.245 373.273,24.559 374.866,26.199C376.478,27.867 377.755,29.829 378.626,31.978C379.527,34.173 379.984,36.563 379.984,39.084C379.984,41.606 379.527,44.005 378.626,46.215C377.726,48.428 376.46,50.381 374.866,52.021C373.274,53.661 371.367,54.974 369.202,55.925C367.036,56.875 364.672,57.356 362.18,57.356M304.131,57.356C302.504,57.356 301.003,57.164 299.667,56.784C298.4,56.43 297.174,55.942 296.011,55.326C294.985,54.783 294.022,54.128 293.14,53.373C292.591,52.901 292.076,52.391 291.6,51.846C291.329,51.534 291.358,51.056 291.664,50.779L294.111,48.555C294.42,48.274 294.904,48.293 295.19,48.597C295.542,48.972 295.922,49.35 296.324,49.729C296.93,50.299 297.624,50.816 298.387,51.266C299.147,51.714 300.008,52.082 300.944,52.358C301.877,52.635 302.914,52.774 304.026,52.774C306.313,52.774 308.122,52.25 309.404,51.213C310.686,50.177 311.335,48.758 311.335,46.997C311.335,45.07 310.618,43.665 309.144,42.701C307.69,41.753 305.562,40.973 302.821,40.384C301.334,40.074 299.964,39.637 298.753,39.084C297.541,38.532 296.478,37.831 295.593,37.001C294.719,36.185 294.018,35.203 293.531,34.111C293.046,33.022 292.801,31.771 292.801,30.39C292.801,29.113 293.046,27.886 293.531,26.746C294.029,25.589 294.778,24.557 295.724,23.726C296.695,22.862 297.924,22.161 299.379,21.644C300.834,21.126 302.539,20.863 304.444,20.863C306.141,20.863 307.625,21.047 308.856,21.41C309.477,21.593 310.074,21.806 310.626,22.043C310.908,22.163 311.093,22.441 311.093,22.748L311.093,26.121C311.093,26.171 311.091,26.214 311.089,26.253C311.063,26.656 310.724,26.973 310.321,26.973C310.249,26.973 310.178,26.963 310.109,26.943C309.872,26.869 309.644,26.768 309.431,26.641C308.721,26.237 307.967,25.914 307.185,25.678C306.335,25.418 305.343,25.288 304.235,25.288C303.125,25.288 302.16,25.438 301.364,25.731C300.567,26.024 299.899,26.409 299.379,26.876C298.859,27.342 298.474,27.876 298.231,28.464C297.994,29.024 297.87,29.626 297.865,30.234C297.865,31.098 298.05,31.842 298.413,32.446C298.777,33.052 299.313,33.595 300.005,34.06C300.699,34.527 301.569,34.93 302.59,35.257C303.607,35.584 304.79,35.907 306.11,36.219C307.394,36.531 308.667,36.943 309.9,37.444C311.11,37.933 312.23,38.619 313.215,39.474C314.2,40.341 314.992,41.405 315.539,42.598C316.111,43.824 316.401,45.339 316.401,47.101C316.401,48.583 316.084,49.967 315.461,51.213C314.832,52.463 313.952,53.571 312.876,54.467C311.784,55.384 310.476,56.102 308.986,56.602C307.496,57.102 305.861,57.356 304.131,57.356" style="fill:rgb(58,54,95);"/>
        </g>
        <g transform="matrix(1,0,0,1,-119.868,0)">
            <path d="M186.537,8.16C185.335,49.411 181.943,44.986 215.647,61.048L186.537,8.16Z" style="fill:rgb(58,54,95);"/>
        </g>
        <g transform="matrix(1,0,0,1,-119.868,0)">
            <path d="M184.391,8.038C181.407,50.367 186.06,43.307 139.751,68.783L184.391,8.038Z" style="fill:rgb(58,54,95);"/>
        </g>
        <g transform="matrix(1,0,0,1,-119.868,0)">
            <path d="M140.81,70.688C166.128,65.37 197.508,62.81 214.5,62.81C179.15,47.867 186.723,47.15 140.81,70.688" style="fill:rgb(58,54,95);"/>
        </g>
    </g>
</svg>
